<?xml version="1.0" standalone="no"?>
<!DOCTYPE svg PUBLIC "-//W3C//DTD SVG 20010904//EN"
 "http://www.w3.org/TR/2001/REC-SVG-20010904/DTD/svg10.dtd">
<svg version="1.0" xmlns="http://www.w3.org/2000/svg"
 width="2031.000000pt" height="2031.000000pt" viewBox="0 0 2031.000000 2031.000000"
 preserveAspectRatio="xMidYMid meet">
<metadata>
Created by potrace 1.11, written by Peter Selinger 2001-2013
</metadata>
<g transform="translate(0.000000,2031.000000) scale(0.100000,-0.100000)"
fill="#000000" stroke="none">
<path d="M9407 19784 c-1 -1 -22 -4 -47 -7 -140 -17 -449 -79 -655 -132 -369
-95 -777 -244 -1105 -403 -63 -30 -117 -56 -120 -57 -6 -1 -62 -30 -130 -67
-159 -86 -188 -103 -212 -119 -14 -11 -29 -19 -32 -19 -7 0 -134 -78 -241
-148 -173 -114 -411 -288 -550 -403 -58 -49 -176 -149 -215 -184 -90 -80 -429
-422 -505 -510 -43 -49 -90 -103 -104 -120 -42 -48 -205 -257 -231 -295 -13
-19 -27 -37 -30 -40 -28 -22 -347 -513 -383 -590 -4 -8 -26 -46 -48 -85 -55
-95 -217 -427 -269 -550 -165 -389 -290 -786 -374 -1190 -23 -111 -30 -149
-42 -230 -3 -16 -9 -55 -14 -85 -5 -30 -12 -75 -15 -100 -3 -25 -8 -56 -10
-70 -2 -14 -7 -54 -10 -90 -4 -36 -8 -81 -10 -100 -5 -47 -15 -176 -20 -270
-6 -109 -6 -549 0 -660 5 -104 8 -135 26 -315 7 -66 12 -131 13 -144 1 -21
-13 -29 -139 -80 -317 -129 -679 -310 -925 -463 -30 -18 -77 -47 -104 -63
-187 -114 -609 -428 -752 -560 -6 -5 -40 -35 -74 -65 -165 -143 -518 -511
-655 -685 -22 -27 -42 -52 -45 -55 -17 -16 -121 -155 -213 -282 -100 -140
-280 -421 -344 -538 -17 -30 -45 -82 -64 -115 -69 -125 -192 -380 -258 -540
-23 -55 -46 -109 -51 -120 -53 -120 -208 -590 -235 -711 -2 -10 -11 -46 -20
-79 -16 -57 -62 -263 -71 -315 -3 -14 -15 -86 -29 -160 -13 -74 -27 -157 -30
-185 -3 -27 -8 -63 -11 -80 -2 -16 -6 -50 -8 -75 -5 -58 -16 -167 -21 -205
-23 -186 -24 -873 -1 -1015 3 -14 7 -65 11 -115 4 -49 8 -92 10 -95 2 -3 6
-37 9 -76 3 -40 8 -78 10 -85 3 -8 7 -33 10 -57 35 -278 140 -713 255 -1055
51 -151 140 -387 147 -387 2 0 36 19 76 43 40 24 81 46 91 50 31 12 30 36 -1
135 -57 177 -131 485 -147 611 -5 42 -11 80 -20 131 -5 28 -12 96 -24 240 -9
97 -7 655 2 700 3 14 8 57 11 96 4 39 8 80 10 90 2 11 7 42 10 69 15 112 50
293 77 399 12 45 23 88 25 96 79 325 252 744 452 1092 95 165 328 497 417 594
5 6 42 47 80 92 100 115 322 333 445 436 445 373 937 648 1475 825 144 47 437
124 520 136 22 4 56 10 75 15 19 5 60 12 90 15 30 4 63 9 72 10 9 2 48 7 85
10 37 4 75 9 83 10 133 25 664 24 870 0 19 -3 55 -7 80 -10 108 -13 202 -27
290 -45 52 -11 106 -21 120 -24 167 -28 575 -159 803 -257 69 -30 356 -170
387 -189 48 -30 153 -90 156 -90 3 0 38 -23 79 -50 41 -28 78 -50 84 -50 5 0
11 -3 13 -8 2 -4 44 -36 93 -71 468 -331 887 -782 1185 -1273 29 -49 55 -88
58 -88 2 0 42 23 89 50 47 27 87 50 89 50 2 0 43 24 91 53 48 29 123 72 165
96 74 42 76 45 66 70 -14 36 -15 42 -42 166 -42 198 -29 432 33 624 75 227
204 420 386 575 75 64 227 159 305 190 25 10 54 22 65 27 48 19 120 40 188 54
l37 7 -2 325 -3 325 -60 4 c-78 4 -201 14 -223 19 -9 1 -44 6 -77 9 -33 4 -71
9 -85 11 -14 3 -38 7 -55 9 -16 2 -87 16 -157 30 -518 106 -1001 299 -1458
584 -58 36 -106 69 -108 74 -2 4 -8 8 -14 8 -8 0 -159 108 -228 163 -68 54
-183 149 -220 182 -93 82 -349 344 -431 440 -88 102 -253 319 -285 374 -10 17
-22 31 -26 31 -4 0 -8 5 -8 11 0 6 -13 29 -28 52 -108 158 -258 443 -358 677
-91 215 -215 611 -248 795 -3 17 -11 57 -17 90 -16 87 -17 93 -29 168 -6 38
-13 94 -16 125 -3 31 -7 71 -9 87 -22 157 -23 727 -1 840 2 11 7 52 10 90 14
132 49 336 82 474 9 36 17 73 19 83 11 54 62 226 104 350 225 656 592 1236
1093 1724 558 544 1272 938 2018 1113 74 18 148 35 165 39 l30 8 0 116 c0 107
-1 116 -18 115 -10 -1 -19 -2 -20 -3z"/>
<path d="M11110 19672 l0 -119 83 -17 c471 -97 960 -293 1388 -558 526 -326
990 -775 1339 -1298 93 -140 102 -155 169 -273 270 -480 456 -1037 525 -1572
3 -22 8 -58 10 -80 6 -41 14 -137 22 -255 14 -219 0 -602 -31 -810 -2 -14 -7
-45 -10 -70 -5 -41 -49 -277 -59 -325 -6 -26 -50 -194 -69 -265 -32 -114 -121
-361 -177 -491 -233 -533 -541 -985 -949 -1388 -544 -539 -1215 -924 -1950
-1118 -74 -19 -146 -37 -160 -39 -14 -3 -42 -9 -61 -14 -36 -9 -67 -15 -135
-25 -22 -4 -47 -8 -55 -11 -27 -7 -237 -33 -328 -40 -48 -4 -98 -8 -112 -10
-14 -1 -34 -2 -45 -3 -20 -1 -20 -8 -20 -326 0 -254 3 -325 12 -326 15 -2 11
-1 83 -18 106 -25 256 -87 345 -144 389 -246 611 -652 599 -1097 -1 -63 -5
-124 -7 -135 -3 -11 -8 -40 -12 -65 -4 -25 -18 -81 -31 -124 -13 -44 -21 -83
-17 -87 5 -4 93 -56 197 -115 l189 -109 16 25 c9 13 54 76 100 140 635 876
1560 1476 2626 1704 153 33 194 41 281 51 22 3 50 7 64 10 14 2 48 7 75 10 28
3 68 7 90 10 59 6 297 17 395 18 92 0 364 -12 402 -18 13 -2 54 -6 91 -10 37
-3 76 -8 86 -10 10 -2 42 -6 72 -10 30 -3 61 -8 69 -10 8 -2 31 -7 50 -10 19
-3 53 -10 75 -15 22 -5 56 -12 75 -15 19 -3 43 -8 52 -11 15 -5 26 -7 81 -19
61 -13 227 -63 352 -105 309 -104 575 -229 903 -425 84 -50 330 -221 397 -276
275 -226 429 -374 640 -616 70 -81 204 -260 289 -388 160 -240 281 -463 401
-740 59 -136 176 -480 200 -587 2 -13 18 -81 35 -153 16 -71 33 -148 36 -170
4 -22 8 -49 10 -60 2 -11 6 -38 9 -60 3 -22 7 -49 9 -60 3 -11 8 -47 11 -80 4
-33 8 -70 10 -82 26 -162 25 -692 0 -903 -23 -188 -40 -292 -79 -485 -12 -56
-28 -125 -42 -170 -8 -27 -27 -95 -43 -150 -16 -55 -34 -113 -40 -128 -6 -16
-9 -32 -6 -37 2 -4 46 -31 96 -59 64 -37 94 -49 103 -42 7 6 23 41 36 78 12
37 26 73 30 78 7 10 96 270 138 405 18 57 68 238 77 280 2 8 17 74 34 145 29
126 74 358 84 440 3 22 11 78 17 125 17 130 19 150 26 225 25 274 31 549 20
845 -4 96 -8 189 -10 205 -3 17 -7 68 -11 115 -4 47 -9 93 -10 102 -2 9 -7 48
-10 85 -4 37 -9 77 -11 88 -3 11 -7 38 -10 60 -2 22 -7 56 -10 75 -4 19 -8 49
-11 65 -26 173 -114 539 -184 770 -195 646 -530 1323 -907 1835 -107 145 -137
185 -142 190 -3 3 -21 25 -40 50 -19 25 -37 47 -40 50 -3 3 -41 48 -85 100
-180 215 -385 423 -650 660 -70 62 -297 244 -400 320 -269 198 -601 403 -890
548 -113 56 -313 152 -320 152 -1 0 -27 11 -57 24 l-55 24 13 79 c15 95 24
165 30 218 2 22 6 60 9 85 25 237 29 340 30 665 0 315 -5 415 -30 660 -18 172
-46 365 -76 511 -5 28 -12 64 -15 80 -6 38 -52 239 -64 284 -59 216 -85 305
-123 420 -47 142 -143 399 -183 488 -13 29 -24 54 -24 56 0 14 -167 355 -238
486 -89 166 -267 451 -383 615 -88 126 -321 423 -384 491 -5 6 -41 47 -80 90
-161 181 -432 442 -645 620 -104 87 -100 84 -251 197 -57 43 -111 84 -119 90
-29 24 -336 225 -410 269 -238 142 -527 290 -748 383 -59 25 -116 50 -127 55
-90 40 -513 187 -590 205 -11 3 -105 27 -210 54 -194 49 -267 67 -320 76 -199
34 -317 54 -352 59 l-43 6 0 -118z"/>
<path d="M10078 14845 c-2 -1 -59 -5 -128 -8 -125 -7 -323 -23 -370 -32 -14
-2 -50 -7 -80 -10 -30 -4 -95 -13 -145 -21 -49 -9 -103 -17 -119 -20 -314 -52
-876 -213 -1140 -328 -17 -7 -87 -38 -156 -67 -413 -178 -882 -457 -1249 -745
-11 -8 -1 -35 52 -140 147 -295 343 -585 573 -846 61 -69 355 -358 365 -358 5
0 46 29 91 64 534 411 1221 698 1905 796 133 19 140 20 210 25 37 3 92 8 121
11 70 7 456 7 547 -1 821 -65 1557 -334 2188 -801 76 -56 133 -92 140 -87 7 4
39 32 71 62 320 299 548 582 753 936 63 110 158 294 165 322 3 12 -62 64 -232
185 -612 435 -1340 758 -2078 922 -298 67 -508 97 -902 132 -70 6 -576 14
-582 9z"/>
<path d="M4632 10042 c-85 -3 -93 -5 -101 -25 -19 -50 -64 -425 -80 -667 -9
-135 -7 -629 3 -745 53 -639 175 -1176 391 -1730 69 -176 87 -218 182 -413
581 -1205 1599 -2201 2823 -2761 l94 -44 29 34 c58 69 238 348 312 483 157
289 287 617 363 918 l20 78 -45 20 c-25 11 -47 20 -50 20 -2 0 -70 33 -151 74
-468 233 -885 551 -1234 937 -40 45 -78 87 -83 93 -6 6 -45 54 -86 106 -436
550 -733 1215 -845 1890 -8 52 -17 106 -20 120 -2 14 -7 57 -10 95 -3 39 -8
72 -9 75 -7 12 -19 266 -19 405 0 272 23 531 69 766 5 24 0 28 -55 48 -245 90
-674 186 -915 205 -222 18 -403 24 -583 18z"/>
<path d="M15268 9896 c-1 -2 -46 -6 -98 -10 -81 -5 -310 -35 -390 -51 -14 -2
-38 -7 -55 -11 -76 -14 -321 -76 -333 -83 -10 -6 -8 -35 8 -142 10 -74 22
-156 25 -184 10 -92 14 -649 5 -735 -9 -80 -11 -104 -26 -232 -11 -99 -55
-323 -89 -458 -304 -1201 -1130 -2207 -2250 -2740 -135 -64 -392 -170 -413
-170 -23 0 -22 -24 8 -137 117 -452 325 -901 597 -1291 36 -51 71 -96 78 -98
16 -7 245 87 440 179 699 333 1341 812 1845 1377 47 52 87 97 90 100 3 3 35
41 71 85 532 650 910 1379 1128 2177 66 239 131 563 156 773 3 28 8 59 10 70
2 11 7 56 10 100 4 44 8 91 10 104 8 47 19 348 19 501 -1 257 -14 469 -45 720
-6 52 -12 100 -12 107 0 13 -31 20 -122 28 -33 3 -100 10 -150 14 -84 8 -509
13 -517 7z"/>
<path d="M9172 8132 c-187 -108 -228 -131 -310 -177 -68 -38 -84 -59 -63 -80
26 -26 210 -526 225 -610 2 -11 13 -52 24 -90 11 -39 22 -81 25 -95 3 -14 17
-83 31 -155 15 -71 29 -146 31 -165 10 -70 14 -106 20 -150 3 -25 7 -61 10
-80 25 -190 25 -724 0 -881 -2 -13 -6 -51 -9 -84 -3 -33 -8 -69 -10 -80 -2
-11 -7 -40 -11 -65 -3 -25 -9 -57 -11 -72 -72 -456 -271 -1013 -512 -1432 -92
-161 -287 -455 -339 -511 -10 -11 -35 -42 -55 -68 -161 -211 -516 -555 -773
-747 -33 -25 -62 -47 -65 -50 -12 -13 -273 -182 -355 -230 -216 -127 -488
-255 -721 -339 -142 -51 -363 -119 -444 -136 -8 -2 -53 -12 -100 -23 -47 -11
-143 -30 -215 -42 -165 -27 -167 -27 -245 -35 -36 -4 -80 -8 -99 -10 -57 -7
-281 -18 -371 -18 -98 0 -391 13 -400 18 -3 1 -45 6 -95 10 -49 4 -92 8 -95
10 -3 2 -27 6 -55 9 -84 11 -117 17 -283 51 -205 41 -585 158 -747 230 -16 7
-57 24 -90 38 -74 31 -362 176 -430 217 -27 16 -63 37 -78 45 -99 56 -412 274
-474 329 -6 6 -29 25 -50 41 -118 94 -328 294 -461 440 l-62 69 -28 -16 c-15
-9 -50 -29 -78 -44 -28 -16 -62 -36 -74 -45 l-24 -16 84 -104 c46 -57 87 -106
90 -109 3 -3 20 -23 39 -45 166 -195 415 -446 625 -630 38 -33 74 -65 80 -70
34 -32 307 -242 396 -306 128 -91 315 -215 385 -255 11 -6 58 -34 105 -61 441
-256 907 -456 1396 -598 131 -38 346 -93 424 -109 163 -33 352 -67 420 -76 47
-6 96 -13 110 -15 24 -4 68 -9 190 -21 30 -3 71 -7 90 -9 240 -26 772 -25
1050 1 119 11 221 22 270 29 14 2 49 7 79 10 30 4 63 9 75 11 11 2 38 6 61 9
22 3 47 8 56 11 9 2 32 7 51 9 20 3 98 18 174 35 76 17 150 33 164 36 14 3 34
8 45 11 11 4 27 7 35 9 55 7 526 153 595 184 11 5 58 23 105 40 47 18 99 38
115 45 17 8 53 23 80 34 70 27 186 81 355 165 315 157 578 316 872 528 75 54
139 98 141 98 4 0 41 -28 157 -120 147 -117 591 -420 615 -420 3 0 28 -15 57
-33 190 -121 661 -347 928 -446 19 -8 49 -20 67 -27 17 -8 37 -14 45 -14 8 0
18 -3 22 -7 4 -5 11 -8 14 -9 4 0 14 -3 22 -6 243 -90 715 -214 960 -253 19
-3 46 -7 60 -10 44 -8 84 -14 130 -20 25 -3 54 -7 65 -9 22 -4 95 -13 170 -21
28 -3 68 -7 90 -9 247 -28 957 -28 1160 -1 17 2 55 7 85 10 107 10 149 16 313
41 28 4 65 10 115 19 16 3 64 12 108 20 43 9 90 18 104 21 14 3 33 7 42 10 10
3 30 7 45 10 97 17 615 165 678 193 11 6 61 24 110 42 231 83 606 253 835 379
687 380 1287 873 1791 1475 140 168 164 205 127 205 -5 0 -49 23 -96 50 l-85
51 -46 -53 c-74 -85 -286 -293 -401 -392 -562 -486 -1244 -820 -1991 -975 -53
-11 -111 -23 -130 -25 -31 -4 -79 -12 -135 -21 -12 -2 -48 -6 -80 -10 -33 -3
-72 -8 -89 -10 -187 -24 -719 -24 -864 -1 -14 3 -55 8 -91 11 -73 8 -256 38
-370 61 -41 9 -83 17 -92 19 -104 22 -510 145 -573 175 -11 5 -49 21 -85 36
-759 308 -1418 824 -1896 1484 -175 242 -346 537 -449 775 -9 22 -25 58 -35
80 -49 108 -169 448 -195 555 -30 122 -76 322 -80 350 -3 20 -8 47 -10 60 -3
14 -8 41 -10 60 -3 19 -8 50 -11 67 -6 39 -21 171 -31 273 -16 158 -7 730 12
825 2 11 7 44 10 73 7 74 15 124 35 232 11 60 11 59 35 173 21 103 94 356 140
487 60 172 115 300 207 489 63 128 63 122 -12 163 -51 28 -75 42 -212 122 -53
31 -101 56 -105 56 -4 0 -30 -25 -57 -56 -137 -156 -399 -308 -622 -360 -127
-29 -312 -38 -449 -22 -259 31 -508 154 -709 349 -50 49 -93 89 -96 89 -3 -1
-65 -35 -138 -78z"/>
</g>
</svg>
